<?xml version="1.0" encoding="utf-8"?>
<!-- Generator: Adobe Illustrator 16.0.0, SVG Export Plug-In . SVG Version: 6.00 Build 0)  -->
<!DOCTYPE svg PUBLIC "-//W3C//DTD SVG 1.1//EN" "http://www.w3.org/Graphics/SVG/1.1/DTD/svg11.dtd">
<svg version="1.1" id="Layer_1" xmlns="http://www.w3.org/2000/svg" xmlns:xlink="http://www.w3.org/1999/xlink" x="0px" y="0px"
	 width="275.092px" height="284.096px" viewBox="0 0 275.092 284.096" enable-background="new 0 0 275.092 284.096"
	 xml:space="preserve">
<line fill="none" stroke="#212121" stroke-width="4" x1="12.675" y1="227.346" x2="38.758" y2="222.387"/>
<line fill="none" stroke="#212121" stroke-width="4" x1="264.008" y1="244.127" x2="237.924" y2="239.168"/>
<linearGradient id="SVGID_1_" gradientUnits="userSpaceOnUse" x1="222.0576" y1="231.9758" x2="246.3251" y2="241.456">
	<stop  offset="0.0296" style="stop-color:#555B5E"/>
	<stop  offset="0.6005" style="stop-color:#555B5E"/>
	<stop  offset="0.641" style="stop-color:#819499"/>
	<stop  offset="1" style="stop-color:#819499"/>
</linearGradient>
<path fill="url(#SVGID_1_)" stroke="#212121" stroke-width="4" d="M248.007,226.126c0,14.754-0.833,17.167-8.469,28.667
	l-18.864-20.999L248.007,226.126z"/>
<circle fill="#819499" stroke="#212121" stroke-width="4" cx="264.008" cy="244.127" r="7.334"/>
<linearGradient id="SVGID_2_" gradientUnits="userSpaceOnUse" x1="29.8525" y1="224.344" x2="53.9887" y2="219.1002">
	<stop  offset="0" style="stop-color:#819499"/>
	<stop  offset="0.4729" style="stop-color:#819499"/>
	<stop  offset="0.5123" style="stop-color:#555B5E"/>
	<stop  offset="0.9704" style="stop-color:#555B5E"/>
</linearGradient>
<path fill="url(#SVGID_2_)" stroke="#212121" stroke-width="4" d="M28.676,209.345c0,14.754,0.833,17.167,8.469,28.667
	l18.864-20.999L28.676,209.345z"/>
<path fill="#819499" stroke="#212121" stroke-width="6" d="M50.008,13.012c93-13,141-9,216,31c5,93-38,215-54,228
	c-45,12.163-103,12.163-153-10C53.008,247.012,19.008,112.012,50.008,13.012z"/>
<path opacity="0.2" enable-background="new    " d="M116.077,157.756c0,29.033-25.726,52.568-57.46,52.568
	c-3.053,0-6.047-0.219-8.971-0.638C45.771,192,39.5,136,40.135,107.967c5.8-1.802,12.016-2.78,18.481-2.78
	C90.351,105.188,116.077,128.723,116.077,157.756z"/>
<linearGradient id="SVGID_3_" gradientUnits="userSpaceOnUse" x1="53.3706" y1="96.8284" x2="45.602" y2="75.4843">
	<stop  offset="0" style="stop-color:#819499"/>
	<stop  offset="0.7291" style="stop-color:#819499"/>
	<stop  offset="0.7586" style="stop-color:#C5DAE2"/>
	<stop  offset="0.9704" style="stop-color:#C5DAE2"/>
</linearGradient>
<polygon fill="url(#SVGID_3_)" stroke="#212121" stroke-width="6" points="16.675,86.012 75.342,64.679 76.675,88.346 
	21.342,101.346 "/>
<linearGradient id="SVGID_4_" gradientUnits="userSpaceOnUse" x1="236.2314" y1="133.5193" x2="243.3167" y2="115.0615">
	<stop  offset="0" style="stop-color:#819499"/>
	<stop  offset="0.7291" style="stop-color:#819499"/>
	<stop  offset="0.7586" style="stop-color:#C5DAE2"/>
	<stop  offset="0.9704" style="stop-color:#C5DAE2"/>
</linearGradient>
<polygon fill="url(#SVGID_4_)" stroke="#212121" stroke-width="6" points="218.008,105.346 216.675,126.012 263.675,137.679 
	267.411,124.346 "/>
<ellipse fill="#819499" stroke="#212121" stroke-width="6" cx="59.16" cy="157.207" rx="49.399" ry="45.193"/>
<radialGradient id="SVGID_5_" cx="60.0088" cy="126.4172" r="30.0291" gradientTransform="matrix(1 0 0 -1 0 285.0962)" gradientUnits="userSpaceOnUse">
	<stop  offset="0" style="stop-color:#ABF291;stop-opacity:0.5468"/>
	<stop  offset="1" style="stop-color:#66E836"/>
</radialGradient>
<ellipse fill="url(#SVGID_5_)" stroke="#212121" stroke-width="6" cx="60.009" cy="158.679" rx="31.333" ry="28.666"/>
<path opacity="0.2" enable-background="new    " d="M232.688,223.08c-0.379,0.01-0.758,0.016-1.14,0.016
	c-23.312,0-42.208-18.896-42.208-42.209c0-23.311,18.896-42.208,42.208-42.208c8.271,0,15.987,2.378,22.5,6.489
	C250.313,163.438,241.375,199.75,232.688,223.08z"/>
<circle fill="#819499" stroke="#212121" stroke-width="6" cx="231.675" cy="181.011" r="34.333"/>
<radialGradient id="SVGID_6_" cx="233.0088" cy="103.7942" r="20.333" gradientTransform="matrix(1 0 0 -1 0 285.0962)" gradientUnits="userSpaceOnUse">
	<stop  offset="0" style="stop-color:#ABF291;stop-opacity:0.5468"/>
	<stop  offset="1" style="stop-color:#66E836"/>
</radialGradient>
<circle fill="url(#SVGID_6_)" stroke="#212121" stroke-width="6" cx="233.009" cy="181.302" r="20.333"/>
<polygon fill="#212121" points="132.008,175.345 128.008,189.345 166.008,190.679 166.008,178.012 "/>
<circle fill="#819499" stroke="#212121" stroke-width="4" cx="12.675" cy="227.346" r="7.333"/>
<path opacity="0.2" enable-background="new    " d="M223.651,233.055c-6.517,16.279-12.594,27.48-16.728,30.84
	c-41.762,11.288-95.587,11.288-141.989-9.279c-1.377-3.444-4.345-13.702-7.596-28.584C107,243,166.5,246,223.651,233.055z"/>
<radialGradient id="SVGID_7_" cx="78.6748" cy="51.8391" r="8.3648" gradientTransform="matrix(1 0 0 -1 0 285.0962)" gradientUnits="userSpaceOnUse">
	<stop  offset="0" style="stop-color:#ABF291;stop-opacity:0.5468"/>
	<stop  offset="1" style="stop-color:#66E836"/>
</radialGradient>
<polygon fill="url(#SVGID_7_)" stroke="#212121" stroke-width="4" points="74.008,223.678 83.342,222.387 83.342,244.127 
	74.008,244.127 "/>
<radialGradient id="SVGID_8_" cx="101.9502" cy="45.2659" r="11.5664" gradientTransform="matrix(1 0 0 -1 0 285.0962)" gradientUnits="userSpaceOnUse">
	<stop  offset="0" style="stop-color:#ABF291;stop-opacity:0.5468"/>
	<stop  offset="1" style="stop-color:#66E836"/>
</radialGradient>
<polygon fill="url(#SVGID_8_)" stroke="#212121" stroke-width="4" points="95.342,224.867 108.559,224.867 106.008,254.793 
	95.342,254.793 "/>
<radialGradient id="SVGID_9_" cx="128.0083" cy="42.7502" r="14.238" gradientTransform="matrix(1 0 0 -1 0 285.0962)" gradientUnits="userSpaceOnUse">
	<stop  offset="0" style="stop-color:#ABF291;stop-opacity:0.5468"/>
	<stop  offset="1" style="stop-color:#66E836"/>
</radialGradient>
<polygon fill="url(#SVGID_9_)" stroke="#212121" stroke-width="4" points="121.342,223.346 134.675,225.346 131.342,261.346 
	121.342,260.679 "/>
<radialGradient id="SVGID_10_" cx="153.0088" cy="40.0837" r="11.9488" gradientTransform="matrix(1 0 0 -1 0 285.0962)" gradientUnits="userSpaceOnUse">
	<stop  offset="0" style="stop-color:#ABF291;stop-opacity:0.5468"/>
	<stop  offset="1" style="stop-color:#66E836"/>
</radialGradient>
<polygon fill="url(#SVGID_10_)" stroke="#212121" stroke-width="4" points="146.675,260.679 156.675,260.679 159.342,229.346 
	147.342,229.346 "/>
<radialGradient id="SVGID_11_" cx="178.3408" cy="41.0837" r="11.7023" gradientTransform="matrix(1 0 0 -1 0 285.0962)" gradientUnits="userSpaceOnUse">
	<stop  offset="0" style="stop-color:#ABF291;stop-opacity:0.5468"/>
	<stop  offset="1" style="stop-color:#66E836"/>
</radialGradient>
<polygon fill="url(#SVGID_11_)" stroke="#212121" stroke-width="4" points="170.675,258.679 180.675,258.012 186.008,229.346 
	174.008,229.346 "/>
<radialGradient id="SVGID_12_" cx="198.0088" cy="44.4172" r="8.0138" gradientTransform="matrix(1 0 0 -1 0 285.0962)" gradientUnits="userSpaceOnUse">
	<stop  offset="0" style="stop-color:#ABF291;stop-opacity:0.5468"/>
	<stop  offset="1" style="stop-color:#66E836"/>
</radialGradient>
<polygon fill="url(#SVGID_12_)" stroke="#212121" stroke-width="4" points="192.675,250.679 202.008,250.679 203.342,232.012 
	196.008,230.679 "/>
<ellipse opacity="0.6" fill="#FFFFFF" enable-background="new    " cx="55.375" cy="142.375" rx="7.125" ry="6.125"/>
<circle opacity="0.6" fill="#FFFFFF" enable-background="new    " cx="229" cy="172.5" r="5.25"/>
<path d="M31.25,49"/>
<linearGradient id="SVGID_13_" gradientUnits="userSpaceOnUse" x1="153.0674" y1="217.6604" x2="159.4238" y2="269.4288" gradientTransform="matrix(1 0 0 -1 0 285.0962)">
	<stop  offset="0" style="stop-color:#FFFFFF;stop-opacity:0"/>
	<stop  offset="0.6798" style="stop-color:#FFFFFF"/>
</linearGradient>
<path opacity="0.4" fill="url(#SVGID_13_)" enable-background="new    " d="M258.136,49.273
	c-58.851-31.387-99.947-39.092-162.978-33.597C96.312,17.269,97,19.22,97,21.336c0,5.339-4.328,9.667-9.667,9.667
	c-5.338,0-9.667-4.328-9.667-9.667c0-1.417,0.313-2.76,0.861-3.974c-7.221,0.826-14.73,1.794-22.587,2.892
	c-3.323,10.612-5.848,21.667-7.706,32.943c83.421-15.341,116.097-12.728,209.833,27.132
	C258.618,69.748,258.677,59.33,258.136,49.273z"/>
<ellipse opacity="0.6" fill="#FFFFFF" enable-background="new    " cx="68.939" cy="174.043" rx="4.023" ry="3.458"/>
<circle opacity="0.6" fill="#FFFFFF" enable-background="new    " cx="240" cy="190.832" r="2.583"/>
</svg>
